# xmcd CD database file
#
# Track frame offsets:
#	150
#	90612
#	97662
#	164337
#
# Disc length: 2647 seconds
#
# Revision: 1
# Processed by: cddbd v1.4PL0 Copyright (c) Steve Scherf et al.
# Submitted via: CDex 1.50
#
DISCID=200a5504
DTITLE=SADAO WATANABE - Round Trip
DYEAR=1970
DGENRE=Jazz
TTITLE0=ROUND TRIP GOING and COMING
TTITLE1=NOSTARGIA
TTITLE2=PASTORAL
TTITLE3=SAO PAULO
EXTD=YEAR: 1970
EXTT0=
EXTT1=
EXTT2=
EXTT3=
PLAYORDER=
